<svg width="24" height="24" viewBox="0 0 24 24" fill="none" xmlns="http://www.w3.org/2000/svg">
<g clip-path="url(#clip0_13_4)">
<rect width="24" height="24" fill="white"/>
<path d="M16.9073 6.74374C16.8278 5.99943 16.4926 5.41988 15.9017 5.00511C15.3164 4.59033 14.5551 4.38295 13.6176 4.38295C12.9585 4.38295 12.3931 4.48238 11.9215 4.68124C11.45 4.88011 11.0892 5.14999 10.8392 5.4909C10.5892 5.83181 10.4613 6.22102 10.4556 6.65852C10.4556 7.02215 10.538 7.33749 10.7028 7.60454C10.8732 7.87158 11.1034 8.09886 11.3931 8.28636C11.6829 8.46818 12.0039 8.62158 12.3562 8.74658C12.7085 8.87158 13.0636 8.9767 13.4215 9.06193L15.0579 9.47102C15.717 9.62443 16.3505 9.83181 16.9585 10.0932C17.5721 10.3545 18.1204 10.6841 18.6034 11.0818C19.092 11.4795 19.4784 11.9597 19.7625 12.5222C20.0465 13.0847 20.1886 13.7437 20.1886 14.4994C20.1886 15.5222 19.9272 16.4227 19.4045 17.2011C18.8818 17.9739 18.1261 18.579 17.1375 19.0165C16.1545 19.4483 14.9642 19.6642 13.5664 19.6642C12.2085 19.6642 11.0295 19.454 10.0295 19.0335C9.03518 18.6131 8.25677 17.9994 7.69427 17.1926C7.13745 16.3858 6.83631 15.4028 6.79086 14.2437H9.90166C9.94711 14.8517 10.1346 15.3574 10.4642 15.7608C10.7937 16.1642 11.2227 16.4653 11.7511 16.6642C12.2852 16.8631 12.8818 16.9625 13.5409 16.9625C14.2284 16.9625 14.8306 16.8602 15.3477 16.6557C15.8704 16.4454 16.2795 16.1557 16.575 15.7864C16.8704 15.4114 17.021 14.9739 17.0267 14.4739C17.021 14.0193 16.8875 13.6443 16.6261 13.3489C16.3647 13.0477 15.9982 12.7977 15.5267 12.5989C15.0607 12.3943 14.5153 12.2125 13.8903 12.0534L11.9045 11.542C10.467 11.1727 9.33063 10.6131 8.49541 9.86306C7.66586 9.10738 7.25109 8.10454 7.25109 6.85454C7.25109 5.82613 7.5295 4.92556 8.08631 4.15283C8.64881 3.38011 9.41302 2.78068 10.3789 2.35454C11.3448 1.92272 12.4386 1.70681 13.6602 1.70681C14.8988 1.70681 15.984 1.92272 16.9159 2.35454C17.8534 2.78068 18.5892 3.37443 19.1232 4.13579C19.6573 4.89147 19.9329 5.76079 19.95 6.74374H16.9073Z" fill="#808080"/>
<path d="M16.9073 6.74374L16.4102 6.79688L16.4579 7.24374H16.9073V6.74374ZM15.9017 5.00511L15.6125 5.41305L15.6144 5.41435L15.9017 5.00511ZM11.9215 4.68124L12.1158 5.14196H12.1158L11.9215 4.68124ZM10.8392 5.4909L10.436 5.19522L10.436 5.19522L10.8392 5.4909ZM10.4556 6.65852L9.95563 6.65202V6.65852H10.4556ZM10.7028 7.60454L10.2772 7.86712L10.2813 7.87356L10.7028 7.60454ZM11.3931 8.28636L11.1215 8.70618L11.1274 8.70989L11.3931 8.28636ZM12.3562 8.74658L12.189 9.2178L12.3562 8.74658ZM13.4215 9.06193L13.5428 8.57682L13.5374 8.57552L13.4215 9.06193ZM15.0579 9.47102L14.9366 9.95615L14.9446 9.958L15.0579 9.47102ZM16.9585 10.0932L16.761 10.5525L16.7625 10.5532L16.9585 10.0932ZM18.6034 11.0818L18.2855 11.4678L18.2877 11.4696L18.6034 11.0818ZM19.4045 17.2011L19.8186 17.4813L19.8196 17.4799L19.4045 17.2011ZM17.1375 19.0165L17.3386 19.4742L17.3398 19.4737L17.1375 19.0165ZM10.0295 19.0335L9.83476 19.494L9.8357 19.4944L10.0295 19.0335ZM7.69427 17.1926L7.28275 17.4766L7.28411 17.4786L7.69427 17.1926ZM6.79086 14.2437V13.7437H6.27087L6.29124 14.2633L6.79086 14.2437ZM9.90166 14.2437L10.4003 14.2065L10.3657 13.7437H9.90166V14.2437ZM10.4642 15.7608L10.8514 15.4445L10.4642 15.7608ZM11.7511 16.6642L11.575 17.1322L11.5766 17.1328L11.7511 16.6642ZM15.3477 16.6557L15.5316 17.1206L15.5342 17.1196L15.3477 16.6557ZM16.575 15.7864L16.9654 16.0987L16.9677 16.0958L16.575 15.7864ZM17.0267 14.4739L17.5268 14.4795L17.5266 14.4676L17.0267 14.4739ZM16.6261 13.3489L16.2485 13.6766L16.2516 13.6801L16.6261 13.3489ZM15.5267 12.5989L15.3256 13.0567L15.3324 13.0596L15.5267 12.5989ZM13.8903 12.0534L13.7656 12.5376L13.767 12.538L13.8903 12.0534ZM11.9045 11.542L12.0292 11.0578L12.0289 11.0578L11.9045 11.542ZM8.49541 9.86306L8.15868 10.2327L8.16134 10.2351L8.49541 9.86306ZM8.08631 4.15283L7.68207 3.85857L7.68066 3.86052L8.08631 4.15283ZM10.3789 2.35454L10.5808 2.812L10.583 2.811L10.3789 2.35454ZM16.9159 2.35454L16.7056 2.80821L16.709 2.80972L16.9159 2.35454ZM19.1232 4.13579L18.7139 4.42293L18.7149 4.42437L19.1232 4.13579ZM19.95 6.74374V7.24374H20.4587L20.4499 6.73507L19.95 6.74374ZM17.4045 6.69061C17.3103 5.8089 16.9028 5.09693 16.1889 4.59586L15.6144 5.41435C16.0824 5.74283 16.3453 6.18995 16.4102 6.79688L17.4045 6.69061ZM16.1908 4.59717C15.4985 4.10652 14.6271 3.88295 13.6176 3.88295V4.88295C14.4831 4.88295 15.1344 5.07415 15.6125 5.41304L16.1908 4.59717ZM13.6176 3.88295C12.9101 3.88295 12.2753 3.98944 11.7273 4.22053L12.1158 5.14196C12.511 4.97532 13.0068 4.88295 13.6176 4.88295V3.88295ZM11.7273 4.22053C11.19 4.4471 10.7496 4.76745 10.436 5.19522L11.2424 5.78658C11.4287 5.53253 11.7099 5.31311 12.1158 5.14196L11.7273 4.22053ZM10.436 5.19522C10.1221 5.62318 9.96266 6.11429 9.95568 6.65202L10.9556 6.66501C10.96 6.32774 11.0562 6.04044 11.2424 5.78658L10.436 5.19522ZM9.95563 6.65852C9.95563 7.09989 10.0565 7.50927 10.2773 7.86709L11.1283 7.34199C11.0195 7.16571 10.9556 6.94442 10.9556 6.65852H9.95563ZM10.2813 7.87356C10.4937 8.20626 10.777 8.48323 11.1215 8.70614L11.6648 7.86657C11.4297 7.71448 11.2528 7.53691 11.1243 7.33552L10.2813 7.87356ZM11.1274 8.70989C11.4509 8.91286 11.8054 9.08168 12.189 9.2178L12.5234 8.27537C12.2025 8.16149 11.9149 8.02349 11.6589 7.86283L11.1274 8.70989ZM12.189 9.2178C12.5579 9.34868 12.9301 9.4589 13.3057 9.54833L13.5374 8.57552C13.1971 8.4945 12.8591 8.39449 12.5234 8.27537L12.189 9.2178ZM13.3003 9.547L14.9366 9.95609L15.1792 8.98594L13.5428 8.57685L13.3003 9.547ZM14.9446 9.958C15.5755 10.1049 16.1808 10.3031 16.761 10.5525L17.156 9.63383C16.5202 9.36052 15.8585 9.144 15.1713 8.98403L14.9446 9.958ZM16.7625 10.5532C17.3351 10.7971 17.8418 11.1024 18.2855 11.4678L18.9212 10.6958C18.399 10.2658 17.8091 9.91202 17.1544 9.63316L16.7625 10.5532ZM18.2877 11.4696C18.7219 11.823 19.0637 12.2478 19.3161 12.7476L20.2088 12.2967C19.893 11.6716 19.4621 11.1361 18.919 10.694L18.2877 11.4696ZM19.3161 12.7476C19.5586 13.2276 19.6886 13.8066 19.6886 14.4994H20.6886C20.6886 13.6809 20.5345 12.9417 20.2088 12.2967L19.3161 12.7476ZM19.6886 14.4994C19.6886 15.4323 19.4518 16.2339 18.9894 16.9224L19.8196 17.4799C20.4027 16.6116 20.6886 15.612 20.6886 14.4994H19.6886ZM18.9904 16.921C18.5281 17.6043 17.8518 18.1536 16.9351 18.5592L17.3398 19.4737C18.4004 19.0044 19.2354 18.3434 19.8186 17.4813L18.9904 16.921ZM16.9363 18.5587C16.0328 18.9556 14.9149 19.1642 13.5664 19.1642V20.1642C15.0134 20.1642 16.2762 19.941 17.3386 19.4742L16.9363 18.5587ZM13.5664 19.1642C12.2588 19.1642 11.1486 18.9616 10.2233 18.5726L9.8357 19.4944C10.9104 19.9463 12.1581 20.1642 13.5664 20.1642V19.1642ZM10.2242 18.573C9.30796 18.1855 8.60781 17.6287 8.10443 16.9067L7.28411 17.4786C7.90573 18.3702 8.7624 19.0406 9.83476 19.494L10.2242 18.573ZM8.10578 16.9086C7.612 16.1931 7.33291 15.3061 7.29048 14.2242L6.29124 14.2633C6.33972 15.4995 6.6629 16.5785 7.28276 17.4766L8.10578 16.9086ZM6.79086 14.7437H9.90166V13.7437H6.79086V14.7437ZM9.40305 14.281C9.45481 14.9733 9.67203 15.5814 10.0769 16.0771L10.8514 15.4445C10.5972 15.1333 10.4394 14.7301 10.4003 14.2065L9.40305 14.281ZM10.0769 16.0771C10.4669 16.5545 10.9712 16.9049 11.575 17.1322L11.9272 16.1962C11.4742 16.0257 11.1205 15.7739 10.8514 15.4445L10.0769 16.0771ZM11.5766 17.1328C12.1745 17.3554 12.8314 17.4625 13.5409 17.4625V16.4625C12.9322 16.4625 12.3958 16.3707 11.9256 16.1956L11.5766 17.1328ZM13.5409 17.4625C14.2769 17.4625 14.944 17.3531 15.5316 17.1206L15.1637 16.1907C14.7173 16.3674 14.1798 16.4625 13.5409 16.4625V17.4625ZM15.5342 17.1196C16.1215 16.8834 16.6067 16.547 16.9654 16.0987L16.1845 15.474C15.9523 15.7643 15.6193 16.0075 15.1611 16.1918L15.5342 17.1196ZM16.9677 16.0958C17.3348 15.6298 17.5198 15.0842 17.5266 14.4795L16.5267 14.4682C16.5222 14.8635 16.406 15.1929 16.1822 15.4769L16.9677 16.0958ZM17.5266 14.4676C17.5197 13.9125 17.3533 13.4163 17.0006 13.0176L16.2516 13.6801C16.4216 13.8723 16.5223 14.1261 16.5267 14.4801L17.5266 14.4676ZM17.0037 13.0211C16.6801 12.6482 16.2437 12.3586 15.7209 12.1381L15.3324 13.0596C15.7528 13.2369 16.0494 13.4472 16.2485 13.6766L17.0037 13.0211ZM15.7277 12.141C15.231 11.923 14.6585 11.733 14.0136 11.5689L13.767 12.538C14.3721 12.692 14.8905 12.8656 15.3257 13.0567L15.7277 12.141ZM14.015 11.5692L12.0292 11.0578L11.7798 12.0262L13.7656 12.5376L14.015 11.5692ZM12.0289 11.0578C10.6452 10.7023 9.58872 10.1728 8.82947 9.49104L8.16134 10.2351C9.07254 11.0533 10.2888 11.6432 11.7801 12.0263L12.0289 11.0578ZM8.83212 9.49344C8.11906 8.84387 7.75109 7.98166 7.75109 6.85454H6.75109C6.75109 8.22742 7.21266 9.37089 8.15869 10.2327L8.83212 9.49344ZM7.75109 6.85454C7.75109 5.92222 8.00146 5.12585 8.49197 4.44514L7.68066 3.86052C7.05753 4.72528 6.75109 5.73004 6.75109 6.85454H7.75109ZM8.49055 4.4471C8.99585 3.75295 9.68686 3.20636 10.5807 2.812L10.1771 1.89708C9.13918 2.35499 8.30178 3.00726 7.68208 3.85857L8.49055 4.4471ZM10.583 2.811C11.4755 2.41199 12.4981 2.20681 13.6602 2.20681V1.20681C12.3791 1.20681 11.2142 1.43345 10.1749 1.89808L10.583 2.811ZM13.6602 2.20681C14.8409 2.20681 15.8518 2.41254 16.7056 2.80819L17.1261 1.90088C16.1162 1.4329 14.9567 1.20681 13.6602 1.20681V2.20681ZM16.709 2.80972C17.5741 3.20299 18.2365 3.7423 18.7139 4.42293L19.5326 3.84865C18.9419 3.00655 18.1326 2.35836 17.1228 1.89936L16.709 2.80972ZM18.7149 4.42437C19.1874 5.09283 19.4346 5.86324 19.45 6.75241L20.4499 6.73507C20.4312 5.65833 20.1273 4.69011 19.5316 3.84721L18.7149 4.42437ZM19.95 6.24374H16.9073V7.24374H19.95V6.24374Z" fill="black"/>
<path d="M16.2074 7.64374C16.1278 6.89942 15.7926 6.31987 15.2017 5.9051C14.6165 5.49033 13.8551 5.28294 12.9176 5.28294C12.2585 5.28294 11.6932 5.38237 11.2216 5.58124C10.75 5.7801 10.3892 6.04999 10.1392 6.3909C9.8892 6.73181 9.76136 7.12101 9.75568 7.55851C9.75568 7.92215 9.83807 8.23749 10.0028 8.50453C10.1733 8.77158 10.4034 8.99885 10.6932 9.18635C10.983 9.36817 11.304 9.52158 11.6562 9.64658C12.0085 9.77158 12.3636 9.87669 12.7216 9.96192L14.358 10.371C15.017 10.5244 15.6506 10.7318 16.2585 10.9932C16.8722 11.2545 17.4205 11.5841 17.9034 11.9818C18.392 12.3795 18.7784 12.8596 19.0625 13.4221C19.3466 13.9846 19.4886 14.6437 19.4886 15.3994C19.4886 16.4221 19.2273 17.3227 18.7045 18.1011C18.1818 18.8739 17.4261 19.479 16.4375 19.9165C15.4545 20.3483 14.2642 20.5642 12.8665 20.5642C11.5085 20.5642 10.3295 20.354 9.32955 19.9335C8.33523 19.5131 7.55682 18.8994 6.99432 18.0926C6.4375 17.2858 6.13636 16.3028 6.09091 15.1437H9.2017C9.24716 15.7517 9.43466 16.2574 9.7642 16.6608C10.0938 17.0642 10.5227 17.3653 11.0511 17.5642C11.5852 17.7631 12.1818 17.8625 12.8409 17.8625C13.5284 17.8625 14.1307 17.7602 14.6477 17.5557C15.1705 17.3454 15.5795 17.0557 15.875 16.6864C16.1705 16.3114 16.321 15.8739 16.3267 15.3739C16.321 14.9193 16.1875 14.5443 15.9261 14.2489C15.6648 13.9477 15.2983 13.6977 14.8267 13.4989C14.3608 13.2943 13.8153 13.1125 13.1903 12.9534L11.2045 12.442C9.76705 12.0727 8.63068 11.5131 7.79545 10.7631C6.96591 10.0074 6.55114 9.00453 6.55114 7.75453C6.55114 6.72612 6.82955 5.82556 7.38636 5.05283C7.94886 4.2801 8.71307 3.68067 9.67898 3.25453C10.6449 2.82271 11.7386 2.60681 12.9602 2.60681C14.1989 2.60681 15.2841 2.82271 16.2159 3.25453C17.1534 3.68067 17.8892 4.27442 18.4233 5.03578C18.9574 5.79146 19.233 6.66078 19.25 7.64374H16.2074Z" fill="black"/>
<path d="M15.2074 9.34375C15.1278 8.59943 14.7926 8.01989 14.2017 7.60511C13.6165 7.19034 12.8551 6.98295 11.9176 6.98295C11.2585 6.98295 10.6932 7.08239 10.2216 7.28125C9.75 7.48011 9.3892 7.75 9.1392 8.09091C8.8892 8.43182 8.76136 8.82102 8.75568 9.25852C8.75568 9.62216 8.83807 9.9375 9.00284 10.2045C9.1733 10.4716 9.40341 10.6989 9.69318 10.8864C9.98295 11.0682 10.304 11.2216 10.6562 11.3466C11.0085 11.4716 11.3636 11.5767 11.7216 11.6619L13.358 12.071C14.017 12.2244 14.6506 12.4318 15.2585 12.6932C15.8722 12.9545 16.4205 13.2841 16.9034 13.6818C17.392 14.0795 17.7784 14.5597 18.0625 15.1222C18.3466 15.6847 18.4886 16.3437 18.4886 17.0994C18.4886 18.1222 18.2273 19.0227 17.7045 19.8011C17.1818 20.5739 16.4261 21.179 15.4375 21.6165C14.4545 22.0483 13.2642 22.2642 11.8665 22.2642C10.5085 22.2642 9.32955 22.054 8.32955 21.6335C7.33523 21.2131 6.55682 20.5994 5.99432 19.7926C5.4375 18.9858 5.13636 18.0028 5.09091 16.8438H8.2017C8.24716 17.4517 8.43466 17.9574 8.7642 18.3608C9.09375 18.7642 9.52273 19.0653 10.0511 19.2642C10.5852 19.4631 11.1818 19.5625 11.8409 19.5625C12.5284 19.5625 13.1307 19.4602 13.6477 19.2557C14.1705 19.0455 14.5795 18.7557 14.875 18.3864C15.1705 18.0114 15.321 17.5739 15.3267 17.0739C15.321 16.6193 15.1875 16.2443 14.9261 15.9489C14.6648 15.6477 14.2983 15.3977 13.8267 15.1989C13.3608 14.9943 12.8153 14.8125 12.1903 14.6534L10.2045 14.142C8.76705 13.7727 7.63068 13.2131 6.79545 12.4631C5.96591 11.7074 5.55114 10.7045 5.55114 9.45454C5.55114 8.42614 5.82955 7.52557 6.38636 6.75284C6.94886 5.98011 7.71307 5.38068 8.67898 4.95454C9.64489 4.52273 10.7386 4.30682 11.9602 4.30682C13.1989 4.30682 14.2841 4.52273 15.2159 4.95454C16.1534 5.38068 16.8892 5.97443 17.4233 6.73579C17.9574 7.49148 18.233 8.3608 18.25 9.34375H15.2074Z" fill="white"/>
<path d="M15.2074 9.34375L14.7102 9.39688L14.758 9.84375H15.2074V9.34375ZM14.2017 7.60511L13.9126 8.01305L13.9144 8.01436L14.2017 7.60511ZM10.2216 7.28125L10.4159 7.74196H10.4159L10.2216 7.28125ZM9.1392 8.09091L8.736 7.79523L8.736 7.79523L9.1392 8.09091ZM8.75568 9.25852L8.25568 9.25203V9.25852H8.75568ZM9.00284 10.2045L8.57727 10.4671L8.58138 10.4736L9.00284 10.2045ZM9.69318 10.8864L9.42153 11.3062L9.42744 11.3099L9.69318 10.8864ZM10.6562 11.3466L10.489 11.8178L10.6562 11.3466ZM11.7216 11.6619L11.8429 11.1768L11.8374 11.1755L11.7216 11.6619ZM13.358 12.071L13.2367 12.5562L13.2446 12.558L13.358 12.071ZM15.2585 12.6932L15.061 13.1525L15.0626 13.1532L15.2585 12.6932ZM16.9034 13.6818L16.5856 14.0678L16.5878 14.0696L16.9034 13.6818ZM17.7045 19.8011L18.1187 20.0813L18.1196 20.0799L17.7045 19.8011ZM15.4375 21.6165L15.6386 22.0743L15.6398 22.0737L15.4375 21.6165ZM8.32955 21.6335L8.13481 22.094L8.13575 22.0944L8.32955 21.6335ZM5.99432 19.7926L5.5828 20.0766L5.58416 20.0786L5.99432 19.7926ZM5.09091 16.8438V16.3438H4.57092L4.59129 16.8633L5.09091 16.8438ZM8.2017 16.8438L8.70031 16.8065L8.66572 16.3438H8.2017V16.8438ZM8.7642 18.3608L9.15143 18.0445L8.7642 18.3608ZM10.0511 19.2642L9.87502 19.7322L9.87667 19.7328L10.0511 19.2642ZM13.6477 19.2557L13.8317 19.7206L13.8343 19.7196L13.6477 19.2557ZM14.875 18.3864L15.2654 18.6987L15.2677 18.6958L14.875 18.3864ZM15.3267 17.0739L15.8268 17.0795L15.8267 17.0676L15.3267 17.0739ZM14.9261 15.9489L14.5485 16.2766L14.5516 16.2802L14.9261 15.9489ZM13.8267 15.1989L13.6257 15.6567L13.6324 15.6596L13.8267 15.1989ZM12.1903 14.6534L12.0657 15.1376L12.067 15.138L12.1903 14.6534ZM10.2045 14.142L10.3292 13.6578L10.329 13.6578L10.2045 14.142ZM6.79545 12.4631L6.45873 12.8327L6.46139 12.8351L6.79545 12.4631ZM6.38636 6.75284L5.98212 6.45857L5.98071 6.46053L6.38636 6.75284ZM8.67898 4.95454L8.8808 5.41201L8.88304 5.41101L8.67898 4.95454ZM15.2159 4.95454L15.0057 5.40821L15.009 5.40973L15.2159 4.95454ZM17.4233 6.73579L17.014 7.02294L17.015 7.02438L17.4233 6.73579ZM18.25 9.34375V9.84375H18.7587L18.7499 9.33508L18.25 9.34375ZM15.7046 9.29062C15.6103 8.40891 15.2028 7.69693 14.489 7.19587L13.9144 8.01436C14.3824 8.34284 14.6454 8.78996 14.7102 9.39688L15.7046 9.29062ZM14.4908 7.19718C13.7985 6.70652 12.9271 6.48295 11.9176 6.48295V7.48295C12.7831 7.48295 13.4344 7.67416 13.9126 8.01305L14.4908 7.19718ZM11.9176 6.48295C11.2102 6.48295 10.5753 6.58945 10.0273 6.82054L10.4159 7.74196C10.811 7.57533 11.3069 7.48295 11.9176 7.48295V6.48295ZM10.0273 6.82054C9.49001 7.04711 9.0497 7.36746 8.736 7.79523L9.54241 8.38659C9.72871 8.13254 10.01 7.91312 10.4159 7.74196L10.0273 6.82054ZM8.736 7.79523C8.42217 8.22319 8.26271 8.7143 8.25572 9.25203L9.25564 9.26502C9.26002 8.92775 9.35624 8.64045 9.54241 8.38659L8.736 7.79523ZM8.25568 9.25852C8.25568 9.6999 8.35654 10.1093 8.57732 10.4671L9.42836 9.94199C9.3196 9.76572 9.25568 9.54442 9.25568 9.25852H8.25568ZM8.58138 10.4736C8.79374 10.8063 9.07706 11.0832 9.42156 11.3061L9.96481 10.4666C9.72976 10.3145 9.55285 10.1369 9.4243 9.93553L8.58138 10.4736ZM9.42744 11.3099C9.75092 11.5129 10.1054 11.6817 10.489 11.8178L10.8235 10.8754C10.5025 10.7615 10.215 10.6235 9.95893 10.4628L9.42744 11.3099ZM10.489 11.8178C10.8579 11.9487 11.2302 12.0589 11.6058 12.1483L11.8374 11.1755C11.4971 11.0945 11.1591 10.9945 10.8235 10.8754L10.489 11.8178ZM11.6003 12.147L13.2367 12.5561L13.4792 11.586L11.8429 11.1769L11.6003 12.147ZM13.2446 12.558C13.8755 12.7049 14.4809 12.9031 15.061 13.1525L15.456 12.2338C14.8203 11.9605 14.1585 11.744 13.4713 11.584L13.2446 12.558ZM15.0626 13.1532C15.6352 13.3971 16.1419 13.7024 16.5856 14.0678L17.2213 13.2959C16.6991 12.8658 16.1092 12.512 15.4545 12.2332L15.0626 13.1532ZM16.5878 14.0696C17.0219 14.423 17.3638 14.8478 17.6162 15.3476L18.5088 14.8968C18.1931 14.2716 17.7622 13.7361 17.219 13.294L16.5878 14.0696ZM17.6162 15.3476C17.8586 15.8276 17.9886 16.4066 17.9886 17.0994H18.9886C18.9886 16.2809 18.8346 15.5417 18.5088 14.8968L17.6162 15.3476ZM17.9886 17.0994C17.9886 18.0323 17.7518 18.8339 17.2895 19.5224L18.1196 20.0799C18.7027 19.2116 18.9886 18.212 18.9886 17.0994H17.9886ZM17.2904 19.521C16.8282 20.2043 16.1519 20.7536 15.2352 21.1592L15.6398 22.0737C16.7004 21.6044 17.5355 20.9434 18.1187 20.0813L17.2904 19.521ZM15.2364 21.1587C14.3329 21.5556 13.2149 21.7642 11.8665 21.7642V22.7642C13.3135 22.7642 14.5762 22.541 15.6386 22.0743L15.2364 21.1587ZM11.8665 21.7642C10.5589 21.7642 9.44864 21.5617 8.52334 21.1726L8.13575 22.0944C9.21045 22.5463 10.4582 22.7642 11.8665 22.7642V21.7642ZM8.52428 21.173C7.60801 20.7856 6.90786 20.2287 6.40448 19.5067L5.58416 20.0786C6.20578 20.9702 7.06245 21.6406 8.13481 22.094L8.52428 21.173ZM6.40583 19.5086C5.91205 18.7931 5.63296 17.9061 5.59053 16.8242L4.59129 16.8633C4.63977 18.0995 4.96295 19.1785 5.58281 20.0766L6.40583 19.5086ZM5.09091 17.3438H8.2017V16.3438H5.09091V17.3438ZM7.7031 16.881C7.75486 17.5733 7.97208 18.1815 8.37698 18.6771L9.15143 18.0445C8.89724 17.7333 8.73946 17.3301 8.70031 16.8065L7.7031 16.881ZM8.37698 18.6771C8.76694 19.1545 9.27125 19.5049 9.87502 19.7322L10.2272 18.7962C9.77421 18.6257 9.42056 18.3739 9.15143 18.0445L8.37698 18.6771ZM9.87667 19.7328C10.4746 19.9554 11.1314 20.0625 11.8409 20.0625V19.0625C11.2322 19.0625 10.6959 18.9707 10.2256 18.7956L9.87667 19.7328ZM11.8409 20.0625C12.577 20.0625 13.244 19.9531 13.8317 19.7206L13.4638 18.7907C13.0173 18.9674 12.4798 19.0625 11.8409 19.0625V20.0625ZM13.8343 19.7196C14.4216 19.4834 14.9068 19.147 15.2654 18.6987L14.4846 18.074C14.2523 18.3643 13.9193 18.6075 13.4612 18.7918L13.8343 19.7196ZM15.2677 18.6958C15.6349 18.2298 15.8198 17.6842 15.8267 17.0795L14.8267 17.0682C14.8222 17.4635 14.706 17.7929 14.4823 18.0769L15.2677 18.6958ZM15.8267 17.0676C15.8197 16.5126 15.6534 16.0163 15.3006 15.6176L14.5516 16.2802C14.7216 16.4723 14.8223 16.7261 14.8267 17.0801L15.8267 17.0676ZM15.3037 15.6211C14.9801 15.2482 14.5437 14.9586 14.021 14.7382L13.6324 15.6596C14.0529 15.8369 14.3494 16.0472 14.5485 16.2766L15.3037 15.6211ZM14.0277 14.741C13.5311 14.523 12.9586 14.333 12.3137 14.1689L12.067 15.138C12.6721 15.292 13.1905 15.4656 13.6257 15.6567L14.0277 14.741ZM12.315 14.1692L10.3292 13.6578L10.0799 14.6262L12.0657 15.1376L12.315 14.1692ZM10.329 13.6578C8.94522 13.3023 7.88877 12.7728 7.12952 12.091L6.46139 12.8351C7.37259 13.6533 8.58887 14.2432 10.0801 14.6263L10.329 13.6578ZM7.13217 12.0934C6.41911 11.4439 6.05114 10.5817 6.05114 9.45454H5.05114C5.05114 10.8274 5.51271 11.9709 6.45874 12.8327L7.13217 12.0934ZM6.05114 9.45454C6.05114 8.52222 6.30151 7.72585 6.79202 7.04515L5.98071 6.46053C5.35758 7.32528 5.05114 8.33005 5.05114 9.45454H6.05114ZM6.7906 7.0471C7.2959 6.35296 7.98691 5.80637 8.8808 5.412L8.47716 4.49709C7.43923 4.955 6.60183 5.60727 5.98212 6.45858L6.7906 7.0471ZM8.88304 5.41101C9.77557 5.012 10.7982 4.80682 11.9602 4.80682V3.80682C10.6791 3.80682 9.51421 4.03346 8.47491 4.49808L8.88304 5.41101ZM11.9602 4.80682C13.141 4.80682 14.1519 5.01255 15.0057 5.4082L15.4261 4.50089C14.4163 4.03291 13.2568 3.80682 11.9602 3.80682V4.80682ZM15.009 5.40973C15.8742 5.803 16.5365 6.34231 17.014 7.02294L17.8326 6.44865C17.2419 5.60656 16.4326 4.95837 15.4228 4.49936L15.009 5.40973ZM17.015 7.02438C17.4874 7.69284 17.7347 8.46325 17.7501 9.35242L18.7499 9.33508C18.7313 8.25834 18.4273 7.29012 17.8316 6.44721L17.015 7.02438ZM18.25 8.84375H15.2074V9.84375H18.25V8.84375Z" fill="black"/>
</g>
<defs>
<clipPath id="clip0_13_4">
<rect width="24" height="24" fill="white"/>
</clipPath>
</defs>
</svg>
