<svg width="92" height="55" viewBox="0 0 92 55" fill="none" xmlns="http://www.w3.org/2000/svg">
<path d="M33.6465 39.9863C33.6465 38.6842 33.3535 37.4798 32.7676 36.373C32.2142 35.2337 31.0586 34.2083 29.3008 33.2969C27.5755 32.3529 24.9714 31.5391 21.4883 30.8555C18.5586 30.237 15.9056 29.5046 13.5293 28.6582C11.1855 27.8118 9.18359 26.7865 7.52344 25.582C5.89583 24.3776 4.64258 22.9616 3.76367 21.334C2.88477 19.7064 2.44531 17.8021 2.44531 15.6211C2.44531 13.5378 2.90104 11.5684 3.8125 9.71289C4.75651 7.85742 6.07487 6.21354 7.76758 4.78125C9.49284 3.34896 11.5599 2.22591 13.9688 1.41211C16.3776 0.598307 19.0632 0.191406 22.0254 0.191406C26.2572 0.191406 29.8704 0.940104 32.8652 2.4375C35.86 3.9349 38.1549 5.93685 39.75 8.44336C41.3451 10.9173 42.1426 13.668 42.1426 16.6953H33.1094C33.1094 15.2305 32.6699 13.8145 31.791 12.4473C30.9447 11.0475 29.6914 9.89193 28.0312 8.98047C26.4036 8.06901 24.4017 7.61328 22.0254 7.61328C19.5189 7.61328 17.4844 8.00391 15.9219 8.78516C14.3919 9.53385 13.2689 10.4941 12.5527 11.666C11.8691 12.8379 11.5273 14.0749 11.5273 15.377C11.5273 16.3535 11.6901 17.2324 12.0156 18.0137C12.3737 18.7624 12.9922 19.4622 13.8711 20.1133C14.75 20.7318 15.987 21.3177 17.582 21.8711C19.1771 22.4245 21.2116 22.9779 23.6855 23.5312C28.015 24.5078 31.5794 25.6797 34.3789 27.0469C37.1784 28.4141 39.2617 30.0905 40.6289 32.0762C41.9961 34.0618 42.6797 36.4707 42.6797 39.3027C42.6797 41.6139 42.1914 43.7298 41.2148 45.6504C40.2708 47.571 38.8874 49.2311 37.0645 50.6309C35.2741 51.998 33.1257 53.0723 30.6191 53.8535C28.1452 54.6022 25.362 54.9766 22.2695 54.9766C17.6146 54.9766 13.6758 54.1465 10.4531 52.4863C7.23047 50.8262 4.78906 48.6777 3.12891 46.041C1.46875 43.4043 0.638672 40.6211 0.638672 37.6914H9.7207C9.85091 40.1654 10.5671 42.1348 11.8691 43.5996C13.1712 45.0319 14.7663 46.0573 16.6543 46.6758C18.5423 47.2617 20.4141 47.5547 22.2695 47.5547C24.7435 47.5547 26.8105 47.2292 28.4707 46.5781C30.1634 45.9271 31.4492 45.0319 32.3281 43.8926C33.207 42.7533 33.6465 41.4512 33.6465 39.9863Z" fill="black"/>
<path d="M46.1797 24.0318V23.7511C46.1797 22.7989 46.318 21.916 46.5947 21.1021C46.8714 20.2802 47.2702 19.5681 47.791 18.9659C48.3118 18.3556 48.9425 17.8836 49.6831 17.5499C50.4236 17.2081 51.2537 17.0372 52.1733 17.0372C53.101 17.0372 53.9352 17.2081 54.6758 17.5499C55.4244 17.8836 56.0592 18.3556 56.58 18.9659C57.109 19.5681 57.5119 20.2802 57.7885 21.1021C58.0652 21.916 58.2036 22.7989 58.2036 23.7511V24.0318C58.2036 24.984 58.0652 25.867 57.7885 26.6808C57.5119 27.4946 57.109 28.2066 56.58 28.817C56.0592 29.4192 55.4285 29.8912 54.688 30.233C53.9555 30.5667 53.1255 30.7335 52.1977 30.7335C51.27 30.7335 50.4358 30.5667 49.6953 30.233C48.9547 29.8912 48.32 29.4192 47.791 28.817C47.2702 28.2066 46.8714 27.4946 46.5947 26.6808C46.318 25.867 46.1797 24.984 46.1797 24.0318ZM48.438 23.7511V24.0318C48.438 24.691 48.5153 25.3136 48.6699 25.8995C48.8245 26.4773 49.0564 26.99 49.3657 27.4376C49.6831 27.8852 50.0778 28.2392 50.5498 28.4996C51.0218 28.7519 51.5711 28.878 52.1977 28.878C52.8162 28.878 53.3574 28.7519 53.8213 28.4996C54.2933 28.2392 54.6839 27.8852 54.9931 27.4376C55.3024 26.99 55.5343 26.4773 55.6889 25.8995C55.8517 25.3136 55.9331 24.691 55.9331 24.0318V23.7511C55.9331 23.1 55.8517 22.4856 55.6889 21.9078C55.5343 21.3219 55.2983 20.8051 54.9809 20.3575C54.6717 19.9018 54.2811 19.5437 53.8091 19.2833C53.3452 19.0229 52.7999 18.8927 52.1733 18.8927C51.5548 18.8927 51.0096 19.0229 50.5376 19.2833C50.0737 19.5437 49.6831 19.9018 49.3657 20.3575C49.0564 20.8051 48.8245 21.3219 48.6699 21.9078C48.5153 22.4856 48.438 23.1 48.438 23.7511ZM63.2939 20.1012V30.4894H61.0356V17.2813H63.1718L63.2939 20.1012ZM62.7568 23.3849L61.8169 23.3482C61.825 22.4449 61.9593 21.6108 62.2197 20.8458C62.4801 20.0727 62.8463 19.4013 63.3183 18.8316C63.7903 18.262 64.3519 17.8225 65.0029 17.5133C65.6621 17.1959 66.3904 17.0372 67.188 17.0372C67.839 17.0372 68.4249 17.1267 68.9458 17.3058C69.4666 17.4767 69.9101 17.7534 70.2763 18.1358C70.6507 18.5183 70.9355 19.0147 71.1308 19.6251C71.3261 20.2273 71.4238 20.9638 71.4238 21.8346V30.4894H69.1533V21.8102C69.1533 21.1184 69.0516 20.565 68.8481 20.15C68.6447 19.7268 68.3476 19.4216 67.957 19.2345C67.5664 19.0392 67.0862 18.9415 66.5166 18.9415C65.955 18.9415 65.4424 19.0595 64.9785 19.2955C64.5228 19.5315 64.1281 19.857 63.7944 20.2721C63.4689 20.6871 63.2125 21.1632 63.0254 21.7003C62.8463 22.2293 62.7568 22.7908 62.7568 23.3849ZM83.4111 17.2813H85.4619V30.2086C85.4619 31.3723 85.2259 32.3652 84.7539 33.1871C84.2819 34.0091 83.6227 34.6316 82.7763 35.0548C81.9381 35.4861 80.9697 35.7018 79.8711 35.7018C79.4153 35.7018 78.8782 35.6285 78.2597 35.482C77.6494 35.3437 77.0472 35.1036 76.4531 34.7618C75.8672 34.4282 75.3748 33.9765 74.976 33.4068L76.1601 32.0641C76.7135 32.7314 77.2913 33.1952 77.8935 33.4557C78.5039 33.7161 79.1061 33.8463 79.7002 33.8463C80.4163 33.8463 81.0348 33.712 81.5556 33.4435C82.0765 33.1749 82.4793 32.7761 82.7641 32.2472C83.0571 31.7263 83.2036 31.0834 83.2036 30.3185V20.1866L83.4111 17.2813ZM74.3169 24.0318V23.7755C74.3169 22.7664 74.4349 21.8508 74.6709 21.0289C74.915 20.1988 75.2609 19.4868 75.7085 18.8927C76.1642 18.2986 76.7135 17.8429 77.3564 17.5255C77.9993 17.2 78.7236 17.0372 79.5293 17.0372C80.3593 17.0372 81.0836 17.1837 81.7021 17.4767C82.3287 17.7615 82.8577 18.1806 83.289 18.734C83.7285 19.2792 84.0744 19.9384 84.3266 20.7115C84.5789 21.4846 84.7539 22.3595 84.8515 23.336V24.4591C84.762 25.4275 84.587 26.2983 84.3266 27.0714C84.0744 27.8445 83.7285 28.5037 83.289 29.0489C82.8577 29.5942 82.3287 30.0133 81.7021 30.3063C81.0755 30.5911 80.3431 30.7335 79.5049 30.7335C78.7155 30.7335 77.9993 30.5667 77.3564 30.233C76.7216 29.8994 76.1764 29.4314 75.7207 28.8292C75.2649 28.227 74.915 27.519 74.6709 26.7052C74.4349 25.8832 74.3169 24.9921 74.3169 24.0318ZM76.5752 23.7755V24.0318C76.5752 24.691 76.6403 25.3095 76.7705 25.8873C76.9088 26.4651 77.1163 26.9737 77.393 27.4132C77.6779 27.8526 78.04 28.1985 78.4795 28.4508C78.9189 28.6949 79.4438 28.817 80.0542 28.817C80.8029 28.817 81.4214 28.6583 81.9096 28.3409C82.3979 28.0235 82.7845 27.6044 83.0693 27.0836C83.3623 26.5628 83.5901 25.9972 83.7529 25.3868V22.4449C83.6634 21.9973 83.525 21.566 83.3379 21.151C83.1588 20.7278 82.9228 20.3535 82.6299 20.0279C82.345 19.6943 81.991 19.4298 81.5678 19.2345C81.1447 19.0392 80.6482 18.9415 80.0786 18.9415C79.4601 18.9415 78.9271 19.0717 78.4795 19.3321C78.04 19.5844 77.6779 19.9343 77.393 20.3819C77.1163 20.8214 76.9088 21.3341 76.7705 21.92C76.6403 22.4978 76.5752 23.1163 76.5752 23.7755Z" fill="black"/>
<path d="M54.4682 49.6814C54.4682 49.3558 54.395 49.0547 54.2485 48.778C54.1102 48.4932 53.8213 48.2369 53.3818 48.009C52.9505 47.773 52.2994 47.5695 51.4287 47.3987C50.6963 47.244 50.033 47.0609 49.4389 46.8493C48.853 46.6377 48.3525 46.3814 47.9375 46.0803C47.5306 45.7792 47.2173 45.4252 46.9975 45.0183C46.7778 44.6114 46.6679 44.1353 46.6679 43.5901C46.6679 43.0692 46.7819 42.5769 47.0097 42.113C47.2457 41.6491 47.5753 41.2382 47.9985 40.8801C48.4298 40.522 48.9466 40.2413 49.5488 40.0378C50.151 39.8344 50.8224 39.7326 51.563 39.7326C52.6209 39.7326 53.5242 39.9198 54.2729 40.2942C55.0216 40.6685 55.5953 41.169 55.9941 41.7956C56.3929 42.4141 56.5923 43.1018 56.5923 43.8586H54.334C54.334 43.4924 54.2241 43.1384 54.0044 42.7966C53.7928 42.4467 53.4795 42.1578 53.0644 41.9299C52.6575 41.702 52.157 41.5881 51.563 41.5881C50.9363 41.5881 50.4277 41.6858 50.0371 41.8811C49.6546 42.0682 49.3738 42.3083 49.1948 42.6013C49.0239 42.8943 48.9384 43.2035 48.9384 43.529C48.9384 43.7732 48.9791 43.9929 49.0605 44.1882C49.15 44.3754 49.3047 44.5503 49.5244 44.7131C49.7441 44.8677 50.0534 45.0142 50.4521 45.1526C50.8509 45.2909 51.3595 45.4293 51.978 45.5676C53.0604 45.8117 53.9515 46.1047 54.6513 46.4465C55.3512 46.7883 55.872 47.2074 56.2138 47.7038C56.5556 48.2002 56.7265 48.8025 56.7265 49.5105C56.7265 50.0883 56.6045 50.6172 56.3603 51.0974C56.1243 51.5775 55.7785 51.9926 55.3227 52.3425C54.8751 52.6843 54.338 52.9529 53.7114 53.1482C53.0929 53.3353 52.3971 53.4289 51.624 53.4289C50.4603 53.4289 49.4756 53.2214 48.6699 52.8064C47.8642 52.3913 47.2539 51.8542 46.8388 51.195C46.4238 50.5359 46.2163 49.8401 46.2163 49.1076H48.4868C48.5193 49.7261 48.6984 50.2185 49.0239 50.5847C49.3494 50.9428 49.7482 51.1991 50.2202 51.3537C50.6922 51.5002 51.1601 51.5735 51.624 51.5735C52.2425 51.5735 52.7592 51.4921 53.1743 51.3293C53.5975 51.1666 53.9189 50.9428 54.1386 50.6579C54.3584 50.3731 54.4682 50.0476 54.4682 49.6814ZM67.4809 50.9265V44.1272C67.4809 43.6063 67.3751 43.1547 67.1635 42.7722C66.9601 42.3816 66.6508 42.0805 66.2358 41.8689C65.8208 41.6573 65.3081 41.5515 64.6977 41.5515C64.1281 41.5515 63.6276 41.6491 63.1963 41.8445C62.7731 42.0398 62.4394 42.2961 62.1953 42.6135C61.9593 42.9309 61.8413 43.2727 61.8413 43.6389H59.583C59.583 43.1669 59.705 42.6989 59.9492 42.2351C60.1933 41.7712 60.5433 41.3521 60.999 40.9778C61.4629 40.5953 62.0162 40.2942 62.6591 40.0744C63.3102 39.8466 64.0345 39.7326 64.832 39.7326C65.7923 39.7326 66.6386 39.8954 67.3711 40.2209C68.1116 40.5464 68.6894 41.0388 69.1045 41.698C69.5276 42.349 69.7392 43.1669 69.7392 44.1516V50.3039C69.7392 50.7434 69.7758 51.2113 69.8491 51.7077C69.9305 52.2042 70.0485 52.6314 70.2031 52.9895V53.1848H67.8471C67.7332 52.9244 67.6437 52.5785 67.5786 52.1472C67.5135 51.7077 67.4809 51.3008 67.4809 50.9265ZM67.8716 45.177L67.896 46.7639H65.6133C64.9703 46.7639 64.3966 46.8168 63.8921 46.9226C63.3875 47.0202 62.9643 47.1708 62.6225 47.3742C62.2807 47.5777 62.0203 47.834 61.8413 48.1433C61.6622 48.4444 61.5727 48.7984 61.5727 49.2053C61.5727 49.6203 61.6663 49.9987 61.8535 50.3405C62.0407 50.6823 62.3214 50.955 62.6958 51.1584C63.0783 51.3537 63.5462 51.4514 64.0996 51.4514C64.7913 51.4514 65.4017 51.3049 65.9306 51.0119C66.4596 50.719 66.8787 50.3609 67.188 49.9377C67.5053 49.5145 67.6762 49.1036 67.7007 48.7048L68.665 49.7912C68.608 50.133 68.4534 50.5114 68.2011 50.9265C67.9489 51.3415 67.6111 51.7403 67.188 52.1228C66.7729 52.4971 66.2765 52.8104 65.6987 53.0627C65.129 53.3069 64.4861 53.4289 63.77 53.4289C62.8748 53.4289 62.0895 53.254 61.414 52.904C60.7467 52.5541 60.2259 52.0862 59.8515 51.5002C59.4853 50.9061 59.3022 50.2429 59.3022 49.5105C59.3022 48.8025 59.4406 48.1799 59.7173 47.6428C59.9939 47.0975 60.3927 46.6459 60.9135 46.2878C61.4344 45.9216 62.061 45.6449 62.7934 45.4577C63.5258 45.2706 64.3437 45.177 65.247 45.177H67.8716ZM75.5376 42.6013V53.1848H73.2671V39.9768H75.4155L75.5376 42.6013ZM75.0737 46.0803L74.0239 46.0437C74.032 45.1404 74.15 44.3062 74.3779 43.5412C74.6058 42.7681 74.9435 42.0967 75.3911 41.5271C75.8387 40.9574 76.3961 40.518 77.0634 40.2087C77.7308 39.8913 78.5039 39.7326 79.3828 39.7326C80.0013 39.7326 80.5709 39.8222 81.0918 40.0012C81.6126 40.1721 82.0643 40.4447 82.4467 40.8191C82.8292 41.1934 83.1263 41.6736 83.3379 42.2595C83.5494 42.8454 83.6552 43.5534 83.6552 44.3835V53.1848H81.3969V44.4934C81.3969 43.8016 81.2789 43.2483 81.0429 42.8332C80.8151 42.4182 80.4896 42.1171 80.0664 41.9299C79.6432 41.7346 79.1468 41.6369 78.5771 41.6369C77.9098 41.6369 77.3523 41.7549 76.9048 41.9909C76.4572 42.2269 76.0991 42.5525 75.8305 42.9675C75.562 43.3825 75.3667 43.8586 75.2446 44.3957C75.1307 44.9247 75.0737 45.4862 75.0737 46.0803ZM83.6308 44.8352L82.1172 45.299C82.1253 44.5748 82.2433 43.879 82.4712 43.2116C82.7072 42.5443 83.0449 41.9502 83.4843 41.4294C83.9319 40.9086 84.4813 40.4976 85.1323 40.1965C85.7833 39.8873 86.528 39.7326 87.3662 39.7326C88.0742 39.7326 88.7008 39.8262 89.2461 40.0134C89.7994 40.2006 90.2633 40.4895 90.6377 40.8801C91.0202 41.2626 91.3091 41.7549 91.5044 42.3571C91.6997 42.9594 91.7973 43.6755 91.7973 44.5056V53.1848H89.5268V44.4812C89.5268 43.7406 89.4088 43.1669 89.1728 42.76C88.945 42.3449 88.6194 42.056 88.1963 41.8933C87.7812 41.7224 87.2848 41.6369 86.707 41.6369C86.2106 41.6369 85.7711 41.7224 85.3886 41.8933C85.0062 42.0642 84.6847 42.3002 84.4243 42.6013C84.1639 42.8943 83.9645 43.232 83.8261 43.6145C83.6959 43.997 83.6308 44.4039 83.6308 44.8352Z" fill="black"/>
</svg>
