<svg width="24" height="21" viewBox="0 0 24 21" fill="none" xmlns="http://www.w3.org/2000/svg">
<path d="M13.299 3.25L20.2272 15.25C20.8046 16.25 20.0829 17.5 18.9282 17.5H5.0718C3.9171 17.5 3.19541 16.25 3.77276 15.25L10.701 3.25C11.2783 2.25 12.7217 2.25 13.299 3.25Z" fill="#EEEEEE" stroke="#FF0000"/>
<path d="M10.5 6.5C10.5 5.94771 10.9477 5.5 11.5 5.5H12.5C13.0523 5.5 13.5 5.94772 13.5 6.5V8.74871C13.5 8.82823 13.4905 8.90747 13.4717 8.98475L12.4635 13.1356C12.4116 13.3494 12.2201 13.5 12 13.5V13.5C11.7799 13.5 11.5884 13.3494 11.5365 13.1356L10.5283 8.98475C10.5095 8.90747 10.5 8.82823 10.5 8.74871V6.5Z" fill="#FF0000"/>
<circle cx="11.95" cy="15.25" r="1.25" fill="#FF0000"/>
</svg>
